<svg width="36" height="21" viewBox="0 0 36 21" fill="none" xmlns="http://www.w3.org/2000/svg">
<g clip-path="url(#clip0_118_25289)">
<path d="M6.92609 20.0305V18.7068C6.92609 18.1992 6.50582 17.8684 5.78545 17.8684C5.42533 17.8684 5.03514 17.9566 4.76498 18.2435C4.55498 18.0008 4.25488 17.8684 3.80467 17.8684C3.50443 17.8684 3.20447 17.9345 2.96426 18.1772V17.9125H2.33398V20.0305H2.96426V18.8612C2.96426 18.4862 3.23441 18.3096 3.65469 18.3096C4.07469 18.3096 4.28496 18.5082 4.28496 18.8612V20.0305H4.91523V18.8612C4.91523 18.4862 5.2152 18.3096 5.60539 18.3096C6.02566 18.3096 6.23566 18.5082 6.23566 18.8612V20.0305H6.92609ZM16.26 17.9125H15.2397V17.2727H14.6094V17.9125H14.0392V18.3316H14.6093V19.3025C14.6093 19.7879 14.8794 20.0746 15.5998 20.0746C15.87 20.0746 16.1699 20.0085 16.3802 19.9202L16.2 19.5231C16.0199 19.6113 15.8099 19.6334 15.6598 19.6334C15.3597 19.6334 15.2397 19.5011 15.2397 19.2803V18.3316H16.26V17.9125ZM21.6024 17.8683C21.2423 17.8683 21.0022 18.0008 20.8521 18.1772V17.9125H20.2219V20.0305H20.8521V18.8391C20.8521 18.4862 21.0621 18.2876 21.4523 18.2876C21.5724 18.2876 21.7225 18.3097 21.8425 18.3317L22.0226 17.8905C21.9025 17.8684 21.7225 17.8684 21.6024 17.8684M13.5289 18.0891C13.2287 17.9346 12.8086 17.8685 12.3583 17.8685C11.6381 17.8685 11.1579 18.1332 11.1579 18.5524C11.1579 18.9055 11.5181 19.104 12.1483 19.1702L12.4484 19.1923C12.7786 19.2363 12.9587 19.3026 12.9587 19.4129C12.9587 19.5673 12.7186 19.6776 12.2983 19.6776C11.878 19.6776 11.548 19.5673 11.3379 19.457L11.0378 19.81C11.3679 19.9865 11.8182 20.0747 12.2682 20.0747C13.1087 20.0747 13.5889 19.788 13.5889 19.3908C13.5889 19.0157 13.1987 18.8171 12.5984 18.751L12.2983 18.7289C12.0282 18.7068 11.8182 18.6628 11.8182 18.5304C11.8182 18.3759 12.0282 18.2877 12.3583 18.2877C12.7186 18.2877 13.0787 18.3979 13.2588 18.4642L13.5289 18.0891ZM30.2763 17.8685C29.916 17.8685 29.676 18.0009 29.5258 18.1773V17.9126H28.8956V20.0306H29.5258V18.8392C29.5258 18.4863 29.736 18.2877 30.126 18.2877C30.2462 18.2877 30.3963 18.3098 30.5164 18.3318L30.6964 17.8906C30.5764 17.8685 30.3963 17.8685 30.2763 17.8685ZM22.2327 18.9716C22.2327 19.6114 22.8329 20.0747 23.7634 20.0747C24.1836 20.0747 24.4837 20.0086 24.7838 19.8321L24.4837 19.457C24.2436 19.5894 24.0035 19.6555 23.7333 19.6555C23.2231 19.6555 22.863 19.3908 22.863 18.9716C22.863 18.5745 23.2231 18.3097 23.7333 18.2877C24.0035 18.2877 24.2436 18.3538 24.4837 18.4863L24.7838 18.1112C24.4837 17.9346 24.1836 17.8685 23.7634 17.8685C22.8329 17.8685 22.2327 18.3318 22.2327 18.9716ZM28.0553 18.9716V17.9126H27.425V18.1773C27.2149 17.9788 26.9148 17.8685 26.5246 17.8685C25.7143 17.8685 25.084 18.3318 25.084 18.9716C25.084 19.6114 25.7143 20.0747 26.5246 20.0747C26.9447 20.0747 27.245 19.9645 27.425 19.7659V20.0306H28.0553V18.9716ZM25.7442 18.9716C25.7442 18.5965 26.0744 18.2877 26.6146 18.2877C27.1248 18.2877 27.485 18.5745 27.485 18.9716C27.485 19.3467 27.1248 19.6555 26.6146 19.6555C26.0744 19.6334 25.7442 19.3467 25.7442 18.9716ZM18.211 17.8685C17.3706 17.8685 16.7703 18.3097 16.7703 18.9716C16.7703 19.6335 17.3705 20.0747 18.2409 20.0747C18.6611 20.0747 19.0813 19.9865 19.4115 19.788L19.1113 19.457C18.8712 19.5894 18.5711 19.6776 18.271 19.6776C17.8808 19.6776 17.4906 19.5453 17.4005 19.1701H19.5316V18.9937C19.5616 18.3097 19.0215 17.8685 18.211 17.8685ZM18.2109 18.2656C18.6009 18.2656 18.8712 18.4422 18.9311 18.7731H17.4305C17.4905 18.4863 17.7606 18.2656 18.2109 18.2656ZM33.8477 18.9716V17.0742H33.2174V18.1773C33.0072 17.9788 32.7071 17.8685 32.317 17.8685C31.5066 17.8685 30.8763 18.3318 30.8763 18.9716C30.8763 19.6114 31.5066 20.0747 32.317 20.0747C32.7372 20.0747 33.0373 19.9645 33.2174 19.7659V20.0306H33.8477V18.9716ZM31.5367 18.9716C31.5367 18.5965 31.8667 18.2877 32.4071 18.2877C32.9173 18.2877 33.2774 18.5745 33.2774 18.9716C33.2774 19.3467 32.9173 19.6555 32.4071 19.6555C31.8667 19.6334 31.5367 19.3467 31.5367 18.9716ZM10.4674 18.9716V17.9126H9.83711V18.1773C9.62697 17.9788 9.32687 17.8685 8.93668 17.8685C8.12635 17.8685 7.49607 18.3318 7.49607 18.9716C7.49607 19.6114 8.12635 20.0747 8.93668 20.0747C9.35695 20.0747 9.65705 19.9645 9.83711 19.7659V20.0306H10.4674V18.9716ZM8.12635 18.9716C8.12635 18.5965 8.45652 18.2877 8.9967 18.2877C9.50693 18.2877 9.86719 18.5745 9.86719 18.9716C9.86719 19.3467 9.50693 19.6555 8.9967 19.6555C8.45652 19.6334 8.12635 19.3467 8.12635 18.9716Z" fill="black"/>
<path d="M13.3184 1.83008H22.7725V14.3176H13.3184V1.83008Z" fill="#FF5F00"/>
<path d="M13.9184 8.07347C13.9184 5.53629 15.5391 3.28583 18.0301 1.82965C16.1994 0.770658 13.8885 0.130859 11.3674 0.130859C5.39455 0.130859 0.5625 3.68292 0.5625 8.07347C0.5625 12.464 5.39455 16.0161 11.3672 16.0161C13.8883 16.0161 16.1993 15.3763 18.0301 14.3172C15.5391 12.8831 13.9184 10.6107 13.9184 8.07347Z" fill="#EB001B"/>
<path d="M35.5281 8.07347C35.5281 12.4639 30.6961 16.0161 24.7234 16.0161C22.2023 16.0161 19.8913 15.3763 18.0605 14.3172C20.5816 12.8611 22.1724 10.6107 22.1724 8.07347C22.1724 5.53629 20.5516 3.28583 18.0605 1.82965C19.8912 0.770658 22.2023 0.130859 24.7234 0.130859C30.6961 0.130859 35.5281 3.70503 35.5281 8.07347Z" fill="#F79E1B"/>
</g>
<defs>
<clipPath id="clip0_118_25289">
<rect width="35" height="20" fill="white" transform="translate(0.5625 0.130859)"/>
</clipPath>
</defs>
</svg>
