<svg width="36" height="21" viewBox="0 0 36 21" fill="none" xmlns="http://www.w3.org/2000/svg">
<g clip-path="url(#clip0_118_25294)">
<path d="M6.90414 0.5H15.6238C16.841 0.5 17.598 1.40713 17.3142 2.52375L13.2545 18.4594C12.968 19.5721 11.7492 20.48 10.5313 20.48H1.81232C0.596893 20.48 -0.161896 19.5721 0.122069 18.4594L4.18344 2.52375C4.4674 1.40713 5.68543 0.5 6.90414 0.5Z" fill="#E21836"/>
<path d="M14.8976 0.5H24.9251C26.1421 0.5 25.5934 1.40713 25.3071 2.52375L21.2479 18.4594C20.9633 19.5721 21.052 20.48 19.8325 20.48H9.80513C8.5856 20.48 7.83091 19.5721 8.11733 18.4594L12.1761 2.52375C12.4643 1.40713 13.6799 0.5 14.8976 0.5Z" fill="#00447C"/>
<path d="M24.5281 0.5H33.2478C34.4668 0.5 35.2238 1.40713 34.9376 2.52375L30.8784 18.4594C30.592 19.5721 29.3725 20.48 28.1536 20.48H19.4381C18.2186 20.48 17.4621 19.5721 17.7478 18.4594L21.8074 2.52375C22.0914 1.40713 23.3086 0.5 24.5281 0.5Z" fill="#007B84"/>
<path d="M9.18195 5.60625C8.28535 5.61462 8.02053 5.60625 7.9359 5.588C7.90336 5.72925 7.29824 8.28125 7.2966 8.28337C7.16631 8.79962 7.07156 9.16775 6.74945 9.40538C6.5668 9.5435 6.35338 9.61025 6.10592 9.61025C5.70834 9.61025 5.4766 9.42963 5.43777 9.08725L5.43025 8.96975C5.43025 8.96975 5.55139 8.27813 5.55139 8.27425C5.55139 8.27425 6.18645 5.94863 6.3002 5.64125C6.30621 5.62375 6.30785 5.61462 6.30936 5.60625C5.07328 5.61625 4.85412 5.60625 4.83908 5.588C4.83074 5.613 4.80012 5.75725 4.80012 5.75725L4.15166 8.3785L4.09602 8.60075L3.98828 9.32787C3.98828 9.5435 4.03463 9.71963 4.12678 9.8685C4.42223 10.3405 5.26496 10.4112 5.7417 10.4112C6.35584 10.4112 6.93211 10.2919 7.32148 10.074C7.99729 9.709 8.1742 9.13825 8.33184 8.631L8.40498 8.37087C8.40498 8.37087 9.05918 5.9555 9.17033 5.64125C9.17443 5.62375 9.17621 5.61462 9.18195 5.60625ZM11.4077 7.55475C11.2501 7.55475 10.962 7.58975 10.7031 7.70575C10.6092 7.74987 10.5203 7.80075 10.4265 7.8515L10.5111 7.57225L10.4648 7.52525C9.91586 7.62687 9.79295 7.6405 9.28586 7.70575L9.24348 7.73163C9.18455 8.17788 9.13219 8.5135 8.91398 9.39088C8.83038 9.71542 8.74506 10.0396 8.65805 10.3634L8.68129 10.4042C9.20109 10.3792 9.35873 10.3793 9.81045 10.386L9.84695 10.3498C9.90437 10.081 9.91176 10.018 10.0389 9.47362C10.0987 9.21562 10.2232 8.64863 10.2846 8.44675C10.3974 8.39888 10.5088 8.35187 10.615 8.35187C10.8682 8.35187 10.8373 8.55375 10.8276 8.63425C10.8167 8.76925 10.7246 9.21038 10.6299 9.58913L10.5668 9.8335C10.5229 10.0141 10.4746 10.1895 10.4306 10.3685L10.4497 10.4042C10.9619 10.3792 11.1182 10.3793 11.5555 10.386L11.6069 10.3498C11.6861 9.93 11.7092 9.81762 11.8495 9.2065L11.92 8.92575C12.0571 8.37613 12.1261 8.0975 12.0223 7.8705C11.9126 7.61613 11.6493 7.55475 11.4077 7.55475ZM13.8945 8.13013C13.6222 8.178 13.4485 8.20975 13.276 8.23037C13.105 8.25537 12.938 8.27825 12.675 8.31163L12.6541 8.32888L12.6349 8.34263C12.6076 8.52188 12.5884 8.67675 12.5521 8.85887C12.5213 9.04712 12.4739 9.26113 12.3968 9.5685C12.337 9.80375 12.3063 9.88575 12.2722 9.9685C12.239 10.0514 12.2025 10.1319 12.1354 10.3633L12.1511 10.3846L12.1642 10.4042C12.4102 10.3936 12.5711 10.386 12.7364 10.3846C12.9015 10.3792 13.0727 10.3846 13.3374 10.3859L13.3606 10.3688L13.3855 10.3496C13.4238 10.1409 13.4294 10.0848 13.4528 9.983C13.476 9.87375 13.5159 9.72262 13.614 9.31875C13.6603 9.12912 13.7119 8.94 13.76 8.7465C13.8099 8.55375 13.8621 8.364 13.9119 8.17425L13.9045 8.15137L13.8945 8.13013ZM13.9003 7.35437C13.6528 7.22087 13.2187 7.26325 12.9264 7.44763C12.6351 7.62838 12.6018 7.88487 12.8485 8.02012C13.0916 8.14987 13.5274 8.11125 13.8171 7.92525C14.1079 7.74063 14.1443 7.4865 13.9003 7.35437ZM15.3964 10.4461C15.8969 10.4461 16.41 10.3199 16.7962 9.94575C17.0933 9.64225 17.2296 9.19062 17.2768 9.00462C17.4303 8.38825 17.3107 8.1005 17.1606 7.92525C16.9323 7.658 16.5288 7.57225 16.1103 7.57225C15.8587 7.57225 15.2594 7.595 14.7911 7.98975C14.4548 8.27437 14.2995 8.66075 14.2058 9.031C14.1112 9.4085 14.0024 10.0878 14.6857 10.3406C14.8965 10.4234 15.2004 10.4461 15.3964 10.4461ZM15.3573 9.05925C15.4727 8.5925 15.609 8.20075 15.9566 8.20075C16.2291 8.20075 16.2489 8.49225 16.1278 8.9605C16.1061 9.0645 16.0067 9.451 15.8721 9.6155C15.7781 9.737 15.6671 9.81062 15.544 9.81062C15.5075 9.81062 15.2901 9.81062 15.2867 9.5155C15.2851 9.36975 15.3176 9.22088 15.3573 9.05925ZM18.5279 10.3861L18.567 10.3498C18.6225 10.081 18.6317 10.0179 18.7545 9.47375C18.816 9.21562 18.9431 8.64875 19.0027 8.44675C19.1158 8.39875 19.2253 8.35175 19.335 8.35175C19.5864 8.35175 19.5558 8.55363 19.5458 8.63413C19.5366 8.76938 19.4443 9.21025 19.3481 9.589L19.2883 9.83337C19.2427 10.0141 19.1929 10.1894 19.1489 10.3686L19.168 10.4044C19.6821 10.3794 19.8322 10.3794 20.2722 10.3861L20.3254 10.3498C20.4025 9.92975 20.4234 9.8175 20.5679 9.2065L20.6367 8.92563C20.7745 8.376 20.8442 8.09763 20.7421 7.87063C20.6293 7.61625 20.3645 7.55487 20.1262 7.55487C19.9682 7.55487 19.6787 7.58962 19.4212 7.70587C19.3292 7.74987 19.2369 7.80062 19.1464 7.85162L19.2253 7.57237L19.1829 7.52513C18.6341 7.62688 18.5089 7.6405 18.0024 7.70587L17.9634 7.73163C17.902 8.178 17.8521 8.51338 17.6339 9.391C17.5502 9.71548 17.465 10.0396 17.3781 10.3634L17.4013 10.4044C17.9218 10.3794 18.0771 10.3794 18.5279 10.3861ZM22.3038 10.4042C22.3361 10.26 22.5297 9.4055 22.5297 9.4055C22.5297 9.4055 22.693 8.77838 22.7032 8.75563C22.7032 8.75563 22.7546 8.69037 22.806 8.6645H22.8816C23.5955 8.6645 24.4018 8.6645 25.0335 8.2395C25.4635 7.948 25.7575 7.51763 25.8886 6.9945C25.9226 6.86625 25.9476 6.71375 25.9476 6.56125C25.9476 6.36087 25.9038 6.16263 25.7766 6.00775C25.4544 5.59563 24.8127 5.588 24.072 5.58488L23.707 5.588C22.7588 5.59875 22.3786 5.59563 22.2223 5.57812C22.2092 5.64125 22.1843 5.75362 22.1843 5.75362C22.1843 5.75362 21.8447 7.19275 21.8447 7.195L20.9936 10.399C21.8215 10.3899 22.1609 10.3899 22.3038 10.4042ZM22.9331 7.84775C22.9331 7.84775 23.2941 6.4115 23.2924 6.417L23.3042 6.34325L23.3092 6.28725L23.4536 6.30075C23.4536 6.30075 24.1983 6.35925 24.2157 6.36075C24.5096 6.46475 24.6308 6.73275 24.5463 7.0825C24.469 7.40225 24.2423 7.671 23.9509 7.80075C23.7109 7.91075 23.417 7.91988 23.1141 7.91988H22.9182L22.9331 7.84775ZM25.1813 9.08588C25.0859 9.45775 24.9763 10.1371 25.6562 10.3793C25.873 10.4635 26.0673 10.4886 26.2646 10.4795C26.4732 10.4693 26.6664 10.3736 26.8453 10.236L26.7968 10.4059L26.8277 10.4421C27.3167 10.4234 27.4685 10.4234 27.9983 10.4271L28.0464 10.3936C28.1236 9.97775 28.1967 9.574 28.3978 8.77838C28.4957 8.39738 28.5934 8.02 28.6939 7.6405L28.6782 7.59875C28.1312 7.69138 27.985 7.71125 27.4587 7.77938L27.4187 7.80912C27.4134 7.84787 27.4078 7.885 27.4027 7.92212C27.321 7.80125 27.2023 7.698 27.0194 7.63375C26.7853 7.5495 26.2357 7.658 25.7633 8.05125C25.4313 8.33212 25.2718 8.71688 25.1813 9.08588ZM26.3303 9.10862C26.4475 8.65012 26.5819 8.26237 26.9305 8.26237C27.1509 8.26237 27.267 8.44825 27.2433 8.76537C27.2231 8.85111 27.2022 8.9367 27.1804 9.02212C27.1456 9.15837 27.1078 9.29337 27.0711 9.42862C27.0336 9.52112 26.99 9.60837 26.9423 9.6665C26.8526 9.78275 26.6392 9.85475 26.5163 9.85475C26.4814 9.85475 26.2663 9.85475 26.2589 9.56475C26.2572 9.4205 26.2897 9.27187 26.3303 9.10862ZM32.3304 7.59487L32.288 7.55075C31.7467 7.651 31.6487 7.667 31.1514 7.72837L31.1148 7.76175C31.1131 7.76725 31.1116 7.7755 31.109 7.78312L31.1074 7.77562C30.7372 8.55662 30.748 8.38812 30.4466 9.00287C30.4449 8.97487 30.4449 8.9575 30.4432 8.92775L30.3678 7.59487L30.3205 7.55075C29.7533 7.651 29.7399 7.667 29.2163 7.72837L29.1754 7.76175C29.1697 7.77775 29.1697 7.79525 29.1663 7.81425L29.1697 7.82113C29.2352 8.12688 29.2195 8.05862 29.2851 8.54137C29.3157 8.77825 29.3566 9.0165 29.3871 9.2505C29.4387 9.642 29.4677 9.83475 29.5308 10.4324C29.1772 10.9659 29.0934 11.1679 28.7528 11.6361L28.7553 11.6408L28.5155 11.9875C28.4881 12.024 28.4633 12.049 28.4284 12.0598C28.3901 12.077 28.3404 12.0801 28.2713 12.0801H28.1384L27.941 12.6806L28.6184 12.6913C29.016 12.6898 29.2659 12.5197 29.4005 12.2912L29.8265 11.6239H29.8196L29.8645 11.5769C30.1511 11.013 32.3304 7.59487 32.3304 7.59487ZM25.1813 15.4809H24.8939L25.9576 12.2646H26.3104L26.4225 11.9334L26.4331 12.3017C26.42 12.5295 26.6159 12.7314 27.1307 12.698H27.7261L27.9309 12.0788H27.7069C27.5781 12.0788 27.5183 12.049 27.5258 11.9852L27.515 11.6104H26.4126V11.6124C26.0562 11.6191 24.9917 11.6436 24.7762 11.6961C24.5155 11.7574 24.2407 11.9383 24.2407 11.9383L24.3487 11.6065H23.3174L23.1025 12.2646L22.0248 15.53H21.8156L21.6105 16.1449H23.6644L23.5957 16.3499H24.6077L24.6749 16.1449H24.9587L25.1813 15.4809ZM24.3386 12.9181C24.1734 12.9599 23.8662 13.0866 23.8662 13.0866L24.1395 12.2646H24.9587L24.7612 12.8635C24.7612 12.8635 24.5079 12.8772 24.3386 12.9181ZM24.3545 14.0924C24.3545 14.0924 24.0971 14.122 23.9278 14.1569C23.761 14.2031 23.448 14.3489 23.448 14.3489L23.7303 13.4935H24.5538L24.3545 14.0924ZM23.8953 15.4884H23.0735L23.3118 14.7665H24.1311L23.8953 15.4884ZM25.8746 13.4935H27.0593L26.8891 13.9976H25.6887L25.5085 14.5486H26.5589L25.7635 15.5725C25.7078 15.6478 25.6579 15.6744 25.6024 15.6955C25.5468 15.7214 25.4736 15.7517 25.3891 15.7517H25.0977L24.8975 16.3552H25.6596C26.0558 16.3552 26.2898 16.1905 26.4625 15.9743L27.008 15.2917L27.1251 15.9848C27.1499 16.1145 27.2519 16.1905 27.321 16.22C27.3973 16.255 27.4762 16.315 27.5876 16.324C27.7069 16.3286 27.7932 16.3324 27.8506 16.3324H28.2252L28.45 15.6569H28.3023C28.2176 15.6569 28.0714 15.6439 28.0467 15.6196C28.0217 15.59 28.0217 15.5446 28.0084 15.4754L27.8895 14.7809H27.403L27.6164 14.5486H28.8145L28.9988 13.9976H27.8896L28.0623 13.4935H29.1682L29.3733 12.8719H26.0764L25.8746 13.4935ZM15.8689 15.6287L16.1453 14.7878H17.2819L17.4894 14.1623H16.3519L16.5255 13.6446H17.6371L17.8431 13.0389H15.0618L14.8602 13.6446H15.4921L15.3235 14.1621H14.6899L14.4799 14.7984H15.1116L14.743 15.9111C14.6934 16.0584 14.7664 16.1145 14.8127 16.183C14.8602 16.2496 14.9081 16.2938 15.0162 16.3188C15.1276 16.3415 15.2039 16.3551 15.3075 16.3551H16.5887L16.817 15.6621L16.2491 15.7335C16.1394 15.7335 15.8356 15.7215 15.8689 15.6287ZM15.9992 11.6028L15.7112 12.0786C15.6497 12.1825 15.5941 12.2471 15.5442 12.2768C15.5001 12.3018 15.4129 12.3124 15.2867 12.3124H15.1365L14.9356 12.9211H15.4346C15.6747 12.9211 15.8589 12.8408 15.9469 12.8005C16.0415 12.7543 16.0664 12.7806 16.1394 12.7161L16.308 12.5826H17.8663L18.0732 11.9489H16.9324L17.1316 11.6026L15.9992 11.6028ZM18.2997 15.641C18.2732 15.606 18.2923 15.5444 18.3329 15.4161L18.7588 14.1273H20.2741C20.4949 14.1244 20.6542 14.122 20.7581 14.1152C20.8694 14.1045 20.9905 14.0681 21.1224 14.0029C21.2587 13.9345 21.3285 13.8624 21.3872 13.7796C21.4529 13.6971 21.5584 13.5162 21.6489 13.2376L22.1843 11.6065L20.6121 11.6149C20.6121 11.6149 20.1278 11.6801 19.9146 11.7524C19.6996 11.8328 19.3922 12.0574 19.3922 12.0574L19.5342 11.6102H18.5629L17.2031 15.7335C17.1548 15.8935 17.1224 16.0097 17.1151 16.0796C17.1126 16.1547 17.2188 16.2293 17.2877 16.2854C17.3691 16.3415 17.4894 16.3324 17.6048 16.3415C17.7262 16.3499 17.8987 16.3551 18.137 16.3551H18.8835L19.1125 15.6478L18.4444 15.7055C18.3729 15.7055 18.3213 15.6705 18.2997 15.641ZM19.0336 13.2567H20.625L20.5239 13.5466C20.5098 13.5534 20.4757 13.5322 20.3137 13.5497H18.9356L19.0336 13.2567ZM19.3525 12.2842H20.9574L20.8419 12.6335C20.8419 12.6335 20.0855 12.6267 19.9644 12.6471C19.4312 12.7315 19.1199 12.9919 19.1199 12.9919L19.3525 12.2842ZM20.5597 14.5175C20.5464 14.5609 20.5255 14.5872 20.4965 14.6071C20.4641 14.6261 20.4118 14.6329 20.3338 14.6329H20.1071L20.1205 14.2799H19.1772L19.1389 16.006C19.1375 16.1305 19.1507 16.2026 19.2503 16.2604C19.3501 16.3324 19.6572 16.3416 20.0706 16.3416H20.6617L20.875 15.6954L20.3605 15.7213L20.1893 15.7304C20.1661 15.7213 20.1437 15.7129 20.1188 15.6903C20.0972 15.6706 20.0605 15.6826 20.0665 15.5581L20.0706 15.1156L20.6101 15.0952C20.9016 15.0952 21.0262 15.0085 21.1324 14.926C21.2337 14.8469 21.2669 14.756 21.3052 14.6329L21.3957 14.2411H20.6542L20.5597 14.5175Z" fill="#FEFEFE"/>
</g>
<defs>
<clipPath id="clip0_118_25294">
<rect width="35" height="20" fill="white" transform="translate(0.0625 0.5)"/>
</clipPath>
</defs>
</svg>
