<svg width="36" height="17" viewBox="0 0 36 17" fill="none" xmlns="http://www.w3.org/2000/svg">
<path d="M18.1637 5.62535C18.1437 7.8453 19.5668 9.08405 20.6388 9.82063C21.7402 10.5763 22.1102 11.0609 22.1058 11.7368C22.0976 12.771 21.2272 13.2275 20.4128 13.2452C18.9919 13.2762 18.1657 12.7043 17.5089 12.2717L16.997 15.6489C17.656 16.077 18.8762 16.4504 20.1416 16.4668C23.1118 16.4668 25.055 14.3995 25.0655 11.1943C25.0771 7.12646 21.0749 6.9013 21.1023 5.08309C21.1117 4.53176 21.4848 3.94342 22.3024 3.79383C22.7071 3.71827 23.8242 3.66043 25.0908 4.4828L25.5879 1.21533C24.9068 0.86564 24.0313 0.530796 22.9414 0.530796C20.1458 0.530796 18.1795 2.62622 18.1637 5.62535ZM30.3646 0.812242C29.8222 0.812242 29.3652 1.25831 29.1612 1.94284L24.9184 16.2268H27.8864L28.477 13.9253H32.1039L32.4465 16.2268H35.0625L32.7797 0.812242H30.3646ZM30.7798 4.97629L31.6363 10.7646H29.2905L30.7798 4.97629ZM14.5651 0.812434L12.2255 16.2266H15.0538L17.3923 0.812049L14.5651 0.812434ZM10.3811 0.812434L7.43725 11.304L6.24643 2.38313C6.1067 1.38728 5.5549 0.812242 4.94213 0.812242H0.129902L0.0625 1.25986C1.05043 1.56212 2.17289 2.04964 2.85293 2.57128C3.2691 2.88993 3.38777 3.16848 3.52449 3.92569L5.77994 16.2268H8.76875L13.351 0.812242L10.3811 0.812434Z" fill="url(#paint0_linear_118_25299)"/>
<defs>
<linearGradient id="paint0_linear_118_25299" x1="1609.15" y1="48.4344" x2="1674.14" y2="-1586.93" gradientUnits="userSpaceOnUse">
<stop stop-color="#222357"/>
<stop offset="1" stop-color="#254AA5"/>
</linearGradient>
</defs>
</svg>
